PathFileType	4	(X/Y/Z)	C:/Users/beibeiliu/ov580/test_trc\sequence.33_training_dense_left.trc
DataRate	CameraRate	NumFrames	NumMarkers	Units	OrigDataRate	OrigDataStartFrame	OrigNumFrames
120	120	10	19	mm	120	57	169
Frame#	Time	ThumbCMC			ThumbMCP			ThumbIP			ThumbTip			IndexMCP			IndexPIP			IndexTip			MiddleMCP			MiddlePIP			MiddleTip			RingMCP			RingPIP			RingTip			PinkyMCP			PinkyPIP			PinkyTip			BackHand1			BackHand2			BackHand3	
		X0	Y0	Z0	X1	Y1	Z1	X2	Y2	Z2	X3	Y3	Z3	X4	Y4	Z4	X5	Y5	Z5	X6	Y6	Z6	X7	Y7	Z7	X8	Y8	Z8	X9	Y9	Z9	X10	Y10	Z10	X11	Y11	Z11	X12	Y12	Z12	X13	Y13	Z13	X14	Y14	Z14	X15	Y15	Z15	X16	Y16	Z16	X17	Y17	Z17	X18	Y18	Z18	
56	0.466667	-159.952	27.6019	50.5023	-151.041	4.31287	38.6487	-142.364	-10.479	23.7068	-138.467	-25.0365	10.4103	-144.44	46.1085	-9.02079	-138.712	35.8279	-33.9409	-145.319	14.4493	-46.7432	-163.666	58.1143	-22.0589	-168.585	41.5182	-47.3892	-182.796	14.4398	-39.4246	-183.185	61.9392	-13.7649	-185.411	48.6712	-42.3322	-189.035	22.36	-39.495	-204.111	64.7214	-4.26982	-206.079	65.5538	-27.9958	-210.648	45.7592	-46.3299	-190.094	68.4725	23.1733	-194.67	70.7657	52.7017	-165.282	56.5412	40.4858	
57	0.475	-161.194	26.9326	56.5385	-150.611	6.18348	43.5032	-140.393	-8.84068	25.5282	-134.057	-22.6053	13.5726	-143.059	43.3784	-9.01015	-141.163	34.5963	-33.7062	-148.914	9.7373	-43.0803	-163.898	56.9317	-19.0121	-165.885	44.3663	-44.0055	-179.736	12.2218	-35.3994	-180.368	61.3803	-15.1938	-180.43	49.491	-39.6695	-186.315	25.6513	-40.7341	-204.324	63.6505	-1.87506	-207.487	65.5022	-27.8567	-208.725	52.0475	-45.9241	-190.919	63.0629	28.141	-189.687	65.5969	53.9455	-166.342	55.8792	44.7178	
58	0.483333	-156.274	24.4486	62.0192	-146.843	6.06285	47.0827	-134.22	-6.45587	35.1902	-124.03	-20.6822	18.9654	-143.117	42.3783	-2.66305	-138.182	34.7352	-28.9645	-148.678	6.76978	-40.4654	-162.957	54.6338	-12.97	-163.461	39.6632	-42.1399	-174.599	10.7177	-37.0623	-180.592	59.8662	-7.82993	-179.263	51.0652	-36.4896	-182.411	28.206	-41.9952	-202.251	62.9455	2.50244	-200.541	67.6615	-19.9686	-202.363	56.3102	-43.3945	-184.641	59.7201	29.611	-191.568	63.4162	57.2529	-165.186	54.5746	46.0695	
59	0.491667	-153.156	23.4102	67.2996	-140.775	7.01059	51.7791	-126.64	-3.45463	39.0088	-115.745	-15.0069	22.7916	-135.616	41.4357	-1.35015	-130.067	30.1994	-26.0152	-140.23	11.2369	-36.7281	-158.188	55.4071	-11.4159	-155.072	45.4484	-37.3384	-169.101	16.1774	-42.0138	-176.123	60.3825	-5.90255	-171.557	52.8539	-32.6671	-177.164	29.1201	-45.281	-198.567	58.7385	8.22528	-197.554	69.1117	-17.4362	-195.964	64.1227	-35.2796	-187.671	59.4462	36.5656	-190.234	62.7566	59.7585	-159.292	51.5112	51.3652	
60	0.5	-148.053	25.5547	71.2637	-134.015	12.1984	56.1718	-114.39	2.45784	40.756	-105.107	-4.97005	27.6329	-134.888	43.0244	7.03025	-126.816	37.8044	-20.5701	-133.674	12.004	-37.1177	-149.865	55.5216	-4.83084	-149.112	51.2542	-32.0886	-153.597	20.3894	-48.1348	-172.485	60.8335	-0.139131	-169.21	60.1285	-28.113	-166.268	43.2766	-44.8706	-192.468	58.0218	10.7923	-194.13	69.7303	-8.53775	-192.481	74.6737	-28.7941	-179.913	57.4268	36.502	-185.815	59.3708	65.2896	-161.33	52.251	53.802	
61	0.508333	-140.597	28.348	73.2123	-123.242	16.5723	60.8752	-105.965	10.1481	47.8532	-90.1307	3.46769	33.0374	-130.062	48.1156	9.09279	-119.259	43.0977	-18.0367	-116.593	20.4546	-34.4708	-145.16	58.9857	-3.40148	-142.291	55.9378	-31.569	-141.687	35.1916	-52.6437	-171.037	61.6957	3.2942	-162.598	66.3831	-22.5496	-161.341	57.8371	-46.5929	-191.265	60.2046	12.6023	-189.462	70.8534	-5.36511	-186.729	77.3575	-22.9566	-177.292	57.434	38.3759	-181.785	58.2353	64.3546	-151.786	54.2796	60.3908	
62	0.516667	-135.489	33.0938	76.4105	-113.749	25.623	61.2925	-99.3049	21.6945	50.9173	-81.1353	18.3281	35.2258	-121.742	53.6038	8.9059	-111.093	50.6159	-13.1255	-107.287	31.3392	-35.4868	-141.843	60.9054	-0.123758	-133.662	61.4597	-28.6369	-133.876	52.1461	-53.7151	-166.24	62.4987	3.10072	-158.995	69.874	-17.0902	-155.921	70.748	-43.1619	-186.39	56.1279	14.6995	-188.461	67.9015	-1.22971	-189.479	81.708	-15.7947	-172.745	57.2924	45.8719	-177.062	56.4437	67.7191	-150.282	56.1722	60.5902	
63	0.525	-131.53	36.6346	76.362	-109.103	31.8755	64.9469	-92.6774	30.5282	51.764	-75.6452	27.9081	37.8132	-117.744	54.8211	10.5971	-105.945	52.4087	-13.6054	-96.6009	40.3567	-34.2462	-139.218	60.1319	-2.56228	-131.575	61.468	-24.0682	-124.714	58.7787	-50.8672	-162.001	58.5654	5.75621	-156.279	68.1029	-17.0985	-155.711	74.8843	-36.5985	-180.603	51.6714	17.2201	-187.692	63.0795	2.69917	-187.231	79.5537	-9.03859	-168.104	55.4251	45.1794	-179.725	57.0431	68.8451	-145.971	59.2359	59.905	
64	0.533333	-130.871	37.7474	73.8489	-107.688	31.3199	66.7132	-85.9788	32.7181	49.4261	-74.5185	29.1744	37.8463	-116.226	54.9663	7.60867	-104.117	53.177	-14.4145	-93.7526	47.0028	-30.7391	-135.611	59.0855	-1.77177	-130.777	60.1691	-26.6564	-126.088	62.1065	-50.8659	-162.46	59.0649	2.44259	-157.482	66.2268	-15.4445	-153.59	75.8289	-34.4921	-179.806	50.9542	15.3574	-187.431	62.246	3.51922	-194.431	75.3783	-2.73165	-168.766	54.7643	44.1991	-175.458	53.9032	68.1566	-144.994	56.012	60.1915	
65	0.541667	-128.863	36.6407	73.1957	-104.805	33.1655	59.6504	-89.8013	30.6423	50.2006	-73.0887	30.9331	36.9555	-118.257	54.648	11.4052	-107.913	54.4912	-13.9676	-96.5099	54.0785	-34.8931	-137.591	58.6076	-2.44937	-136.302	60.887	-26.0947	-134.193	65.8909	-46.5163	-159.576	56.4165	1.86792	-159.23	64.5476	-17.6989	-160.474	74.1914	-33.7322	-183.237	49.5109	12.8028	-193.669	56.1477	2.67632	-195.166	71.8572	-7.66343	-169.494	51.5195	46.0519	-177.079	54.4017	65.7825	-148.353	56.7968	60.1289	
